# topologicpy The version that you are using (0.9.65) is EQUAL TO the latest version (0.9.65) available on PyPI.
mtllib example.mtl

g Untitled_000
v 11.509773 -62.884733 0.0
v 11.509773 -64.246486 0.0
v 14.318859 -64.246486 0.0
v 14.318859 -62.884733 0.0
v 21.430244 -62.884733 0.0
v 21.430244 -59.808153 0.0
v 12.402881 -59.808153 0.0
v 12.402881 -58.586773 0.0
v 14.785759 -58.586773 0.0
v 14.785759 -48.02956 0.0
v 12.402881 -48.02956 0.0
v 12.402881 -47.001078 0.0
v 25.516539 -47.001078 0.0
v 25.516539 -41.446797 0.0
v 31.95313 -41.446797 0.0
v 31.95313 -49.262964 0.0
v 31.029326 -49.262964 0.0
v 31.029326 -48.02956 0.0
v 15.651519 -48.02956 0.0
v 15.651519 -58.586773 0.0
v 31.029326 -58.586773 0.0
v 31.029326 -51.74821 0.0
v 31.95313 -51.74821 0.0
v 31.95313 -55.672773 0.0
v 47.433399 -55.672773 0.0
v 47.433399 -46.099907 0.0
v 48.198584 -46.099907 0.0
v 48.198584 -55.672773 0.0
v 62.383915 -55.672773 0.0
v 62.383915 -46.099907 0.0
v 63.678806 -46.099907 0.0
v 63.678806 -55.672773 0.0
v 79.217968 -55.672773 0.0
v 79.217968 -46.099907 0.0
v 80.159689 -46.099907 0.0
v 80.159689 -57.320833 0.0
v 88.51787 -57.320833 0.0
v 88.51787 -49.963314 0.0
v 110.178459 -49.963314 0.0
v 110.178459 -30.833709 0.0
v 94.284288 -30.833709 0.0
v 94.284288 -29.51246 0.0
v 101.091354 -29.51246 0.0
v 101.091354 12.452057 0.0
v 94.284288 12.452057 0.0
v 94.284288 16.38624 0.0
v 99.064426 16.38624 0.0
v 101.309904 18.631717 0.0
v 101.309904 31.124193 0.0
v 98.781184 33.652913 0.0
v 85.798373 33.652913 0.0
v 83.659506 31.514047 0.0
v 83.659506 26.605183 0.0
v 82.383288 26.605183 0.0
v 82.383288 33.652913 0.0
v 29.003908 33.652913 0.0
v 29.003908 26.605183 0.0
v 27.620277 26.605183 0.0
v 27.620277 33.652913 0.0
v 10.713516 33.652913 0.0
v 10.713516 35.259432 0.0
v 20.863099 35.259432 0.0
v 20.863099 47.964423 0.0
v -2.575407 47.964423 0.0
v -2.575407 35.259432 0.0
v 7.583135 35.259432 0.0
v 7.583135 33.652913 0.0
v -9.065516 33.652913 0.0
v -9.065516 26.605183 0.0
v -10.420526 26.605183 0.0
v -10.420526 28.715853 0.0
v -12.234797 28.715853 0.0
v -13.884837 32.484531 0.0
v -25.45252 32.484531 0.0
v -27.102607 28.715853 0.0
v -29.616946 28.715853 0.0
v -31.267033 32.484531 0.0
v -35.596963 32.484531 0.0
v -35.596963 33.844162 0.0
v -32.324278 33.844162 0.0
v -32.324278 40.614449 0.0
v -35.596963 40.614449 0.0
v -35.596963 41.641233 0.0
v -32.215639 41.641233 0.0
v -32.215639 52.194108 0.0
v -41.754273 52.194108 0.0
v -41.754273 47.989178 0.0
v -43.809538 47.989178 0.0
v -43.809538 52.194108 0.0
v -47.678273 52.194108 0.0
v -47.678273 54.304683 0.0
v -43.809538 54.304683 0.0
v -43.809538 64.804889 0.0
v -47.678273 64.804889 0.0
v -47.678273 66.968133 0.0
v -43.809538 66.968133 0.0
v -43.809538 76.817451 0.0
v -66.659161 76.817451 0.0
v -66.659161 73.25676 0.0
v -68.271244 73.25676 0.0
v -68.271244 76.817451 0.0
v -79.595197 76.817451 0.0
v -79.595197 73.25676 0.0
v -81.287769 73.25676 0.0
v -81.287769 76.817451 0.0
v -104.326897 76.817451 0.0
v -104.326897 66.968133 0.0
v -100.631398 66.968133 0.0
v -100.631398 64.804889 0.0
v -104.326897 64.804889 0.0
v -104.326897 54.304683 0.0
v -100.631398 54.304683 0.0
v -100.631398 52.194108 0.0
v -104.326897 52.194108 0.0
v -104.326897 41.641233 0.0
v -81.287769 41.641233 0.0
v -81.287769 45.571266 0.0
v -79.595197 45.571266 0.0
v -79.595197 41.641233 0.0
v -75.320907 41.641233 0.0
v -75.320907 39.980253 0.0
v -77.070674 39.980253 0.0
v -77.070674 34.51226 0.0
v -75.320907 34.51226 0.0
v -75.320907 31.474298 0.0
v -77.383953 29.411252 0.0
v -77.86481 29.892109 0.0
v -77.080293 30.676625 0.0
v -77.080293 31.581757 0.0
v -82.850578 31.581757 0.0
v -82.850578 30.902908 0.0
v -84.491141 30.902908 0.0
v -84.491141 32.034323 0.0
v -93.655717 32.034323 0.0
v -93.655717 25.076041 0.0
v -90.035143 25.076041 0.0
v -90.035143 24.114327 0.0
v -93.655717 24.114327 0.0
v -93.655717 13.19607 0.0
v -84.491141 13.19607 0.0
v -84.491141 17.778358 0.0
v -80.983732 17.778358 0.0
v -80.983732 12.455216 0.0
v -88.690082 12.455216 0.0
v -88.690082 -29.606293 0.0
v -80.983732 -29.606293 0.0
v -80.983732 -30.91217 0.0
v -92.719182 -30.91217 0.0
v -92.719182 -49.798895 0.0
v -69.311702 -49.798895 0.0
v -69.311702 -58.137177 0.0
v -61.073854 -58.137177 0.0
v -61.073854 -45.949964 0.0
v -60.169713 -45.949964 0.0
v -60.169713 -55.587994 0.0
v -44.748902 -55.587994 0.0
v -44.748902 -45.949964 0.0
v -43.191751 -45.949964 0.0
v -43.191751 -55.587994 0.0
v -30.784762 -55.587994 0.0
v -30.784762 -45.949964 0.0
v -29.026696 -45.949964 0.0
v -29.026696 -55.587994 0.0
v -14.660725 -55.587994 0.0
v -14.660725 -41.446797 0.0
v -7.737053 -41.446797 0.0
v -7.737053 -47.001078 0.0
v -6.747094 -47.001078 0.0
v -6.747094 -48.02956 0.0
v -13.30878 -48.02956 0.0
v -13.30878 -58.586773 0.0
v 2.058465 -58.586773 0.0
v 2.058465 -48.02956 0.0
v -3.498409 -48.02956 0.0
v -3.498409 -47.001078 0.0
v 5.381604 -47.001078 0.0
v 5.381604 -48.02956 0.0
v 2.993727 -48.02956 0.0
v 2.993727 -58.586773 0.0
v 5.381604 -58.586773 0.0
v 5.381604 -59.808153 0.0
v -4.191026 -59.808153 0.0
v -4.191026 -62.884733 0.0
v 3.525603 -62.884733 0.0
v 3.525603 -64.246486 0.0
v 6.768253 -64.246486 0.0
v 6.768253 -62.884733 0.0
v 7.583135 -62.884733 0.0
v 7.583135 -64.246486 0.0
v 10.713516 -64.246486 0.0
v 10.713516 -62.884733 0.0
v -3.498409 -33.386052 0.0
v 2.993727 -33.386052 0.0
v 2.993727 -32.054618 0.0
v -0.190124 -32.054618 0.0
v -0.190124 -23.446437 0.0
v 2.993727 -23.446437 0.0
v 2.993727 -22.467795 0.0
v -0.190124 -22.467795 0.0
v -0.190124 -10.02596 0.0
v -3.498409 -10.02596 0.0
v -3.498409 -16.25329 0.0
v -1.605158 -16.25329 0.0
v -1.605158 -32.054618 0.0
v -3.498409 -32.054618 0.0
v 14.785759 -33.386052 0.0
v 25.516539 -33.386052 0.0
v 25.516539 -38.283599 0.0
v 31.95313 -38.283599 0.0
v 31.95313 -33.386052 0.0
v 47.433399 -33.386052 0.0
v 47.433399 -42.710945 0.0
v 48.198584 -42.710945 0.0
v 48.198584 -32.90958 0.0
v 52.900968 -32.90958 0.0
v 52.900968 -32.031183 0.0
v 48.223527 -32.031183 0.0
v 48.223527 -19.458548 0.0
v 52.182747 -19.458548 0.0
v 52.182747 -17.96312 0.0
v 48.417134 -17.96312 0.0
v 45.85602 -14.650025 0.0
v 45.85602 -11.751444 0.0
v 44.590647 -11.751444 0.0
v 44.590647 -14.650025 0.0
v 29.003908 -14.650025 0.0
v 29.003908 -10.02596 0.0
v 27.620277 -10.02596 0.0
v 27.620277 -14.650025 0.0
v 18.898224 -14.650025 0.0
v 18.898224 -10.02596 0.0
v 17.851683 -10.02596 0.0
v 17.851683 -22.467795 0.0
v 14.785759 -22.467795 0.0
v 14.785759 -23.446437 0.0
v 17.851683 -23.446437 0.0
v 17.851683 -32.054618 0.0
v 14.785759 -32.054618 0.0
v -6.747094 -32.054618 0.0
v -6.747094 -33.386052 0.0
v -7.737053 -33.386052 0.0
v -7.737053 -38.283599 0.0
v -14.660725 -38.283599 0.0
v -14.660725 -33.386052 0.0
v -29.026696 -33.386052 0.0
v -29.026696 -43.212407 0.0
v -30.784762 -43.212407 0.0
v -30.784762 -32.783259 0.0
v -35.596963 -32.783259 0.0
v -35.596963 -32.054618 0.0
v -30.784762 -32.054618 0.0
v -30.784762 -16.25329 0.0
v -35.596963 -16.25329 0.0
v -35.596963 -14.650025 0.0
v -33.53934 -14.650025 0.0
v -30.784762 -11.895446 0.0
v -30.784762 -10.02596 0.0
v -29.523679 -10.02596 0.0
v -29.523679 -14.650025 0.0
v -10.936134 -14.650025 0.0
v -10.936134 -10.02596 0.0
v -6.747094 -10.02596 0.0
v -6.747094 -16.25329 0.0
v -23.420453 -16.25329 0.0
v -23.420453 -32.054618 0.0
v -77.759189 12.455216 0.0
v -71.078963 12.455216 0.0
v -71.078963 -7.03515 0.0
v -65.673918 -7.03515 0.0
v -65.673918 -1.754681 0.0
v -45.176242 -1.754681 0.0
v -45.176242 -7.03515 0.0
v -44.254513 -7.03515 0.0
v -44.254513 -5.878792 0.0
v -40.130402 -1.754681 0.0
v -38.341875 -1.754681 0.0
v -38.341875 -0.197436 0.0
v -44.254513 -0.197436 0.0
v -44.254513 15.730543 0.0
v -38.341875 15.730543 0.0
v -38.341875 17.409817 0.0
v -42.740459 17.409817 0.0
v -44.390499 20.980174 0.0
v -46.904885 20.980174 0.0
v -48.554925 17.409817 0.0
v -60.439753 17.409817 0.0
v -62.089793 20.980174 0.0
v -63.9755 20.980174 0.0
v -63.9755 23.284544 0.0
v -67.501015 23.284544 0.0
v -71.366591 19.418921 0.0
v -76.910593 19.418921 0.0
v -77.412574 19.920855 0.0
v -77.921675 19.411754 0.0
v -77.759189 19.249221 0.0
v -82.511177 21.851498 0.0
v -82.511177 20.154352 0.0
v -84.491141 20.154352 0.0
v -84.491141 24.114327 0.0
v -87.715732 24.114327 0.0
v -87.715732 25.076041 0.0
v -84.491141 25.076041 0.0
v -84.491141 28.753197 0.0
v -82.850578 28.753197 0.0
v -82.850578 27.3955 0.0
v -80.361466 27.3955 0.0
v -79.546914 28.210005 0.0
v -79.066057 27.729148 0.0
v -80.063135 26.73207 0.0
v -80.063135 22.571463 0.0
v -79.060681 21.569009 0.0
v -79.56983 21.059861 0.0
v -80.361466 21.851498 0.0
v -55.536595 33.844162 0.0
v -66.780059 33.844162 0.0
v -66.780059 36.262121 0.0
v -70.946513 36.262121 0.0
v -70.946513 34.51226 0.0
v -72.040111 34.51226 0.0
v -72.040111 30.727833 0.0
v -67.917462 26.605183 0.0
v -63.9755 26.605183 0.0
v -63.9755 28.715853 0.0
v -62.089793 28.715853 0.0
v -60.439753 32.484531 0.0
v -48.554925 32.484531 0.0
v -46.904885 28.715853 0.0
v -44.390499 28.715853 0.0
v -42.740459 32.484531 0.0
v -38.341875 32.484531 0.0
v -38.341875 33.844162 0.0
v -41.754273 33.844162 0.0
v -41.754273 36.262121 0.0
v -43.08415 36.262121 0.0
v -43.08415 33.844162 0.0
v -54.448513 33.844162 0.0
v -54.448513 36.262121 0.0
v -55.536595 36.262121 0.0
v -72.040111 41.641233 0.0
v -72.040111 39.980253 0.0
v -70.946513 39.980253 0.0
v -70.946513 38.438285 0.0
v -66.780059 38.438285 0.0
v -66.780059 40.614449 0.0
v -55.536595 40.614449 0.0
v -55.536595 38.438285 0.0
v -54.448513 38.438285 0.0
v -54.448513 40.614449 0.0
v -43.08415 40.614449 0.0
v -43.08415 38.438285 0.0
v -41.754273 38.438285 0.0
v -41.754273 40.614449 0.0
v -38.341875 40.614449 0.0
v -38.341875 41.641233 0.0
v -41.754273 41.641233 0.0
v -41.754273 45.571266 0.0
v -43.809538 45.571266 0.0
v -43.809538 41.641233 0.0
v -66.659161 41.641233 0.0
v -66.659161 45.571266 0.0
v -68.271244 45.571266 0.0
v -68.271244 41.641233 0.0
v -10.420526 23.284544 0.0
v -10.420526 20.980174 0.0
v -12.234797 20.980174 0.0
v -13.884837 17.409817 0.0
v -25.45252 17.409817 0.0
v -27.102607 20.980174 0.0
v -29.616946 20.980174 0.0
v -31.267033 17.409817 0.0
v -35.596963 17.409817 0.0
v -35.596963 15.730543 0.0
v -30.784762 15.730543 0.0
v -30.784762 -0.197436 0.0
v -35.596963 -0.197436 0.0
v -35.596963 -1.754681 0.0
v -34.546603 -1.754681 0.0
v -30.784762 -5.516475 0.0
v -30.784762 -7.03515 0.0
v -29.523679 -7.03515 0.0
v -29.523679 -1.754681 0.0
v -10.936134 -1.754681 0.0
v -10.936134 -7.03515 0.0
v -0.190124 -7.03515 0.0
v -0.190124 6.171634 0.0
v 7.583135 6.171634 0.0
v 7.583135 7.368495 0.0
v -0.190124 7.368495 0.0
v -0.190124 8.522637 0.0
v -5.9349 8.522637 0.0
v -5.9349 -0.197436 0.0
v -25.939789 -0.197436 0.0
v -25.939789 16.045849 0.0
v -10.722393 16.045849 0.0
v -10.722393 13.481105 0.0
v -0.190124 13.481105 0.0
v -0.190124 14.759822 0.0
v 7.583135 14.759822 0.0
v 7.583135 16.38624 0.0
v -9.065516 16.38624 0.0
v -9.065516 23.284544 0.0
v -68.271244 47.989178 0.0
v -66.659161 47.989178 0.0
v -66.659161 52.194108 0.0
v -50.217131 52.194108 0.0
v -50.217131 54.304683 0.0
v -66.659161 54.304683 0.0
v -66.659161 64.804889 0.0
v -50.217131 64.804889 0.0
v -50.217131 66.968133 0.0
v -66.659161 66.968133 0.0
v -66.659161 70.234358 0.0
v -68.271244 70.234358 0.0
v -81.287769 52.194108 0.0
v -81.287769 47.989178 0.0
v -79.595197 47.989178 0.0
v -79.595197 70.234358 0.0
v -81.287769 70.234358 0.0
v -81.287769 66.968133 0.0
v -97.850745 66.968133 0.0
v -97.850745 64.804889 0.0
v -81.287769 64.804889 0.0
v -81.287769 54.304683 0.0
v -97.850745 54.304683 0.0
v -97.850745 52.194108 0.0
v 27.620277 16.38624 0.0
v 10.713516 16.38624 0.0
v 10.713516 14.759822 0.0
v 17.851683 14.759822 0.0
v 17.851683 12.113269 0.0
v 20.73824 12.113269 0.0
v 20.73824 14.759822 0.0
v 26.893569 14.759822 0.0
v 26.893569 8.693611 0.0
v 17.851683 8.693611 0.0
v 17.851683 7.368495 0.0
v 10.713516 7.368495 0.0
v 10.713516 6.171634 0.0
v 17.851683 6.171634 0.0
v 17.851683 -7.03515 0.0
v 18.898224 -7.03515 0.0
v 18.898224 -1.754681 0.0
v 27.620277 -1.754681 0.0
v 27.620277 -7.03515 0.0
v 29.003908 -7.03515 0.0
v 29.003908 -1.754681 0.0
v 44.590647 -1.754681 0.0
v 44.590647 -4.619454 0.0
v 45.85602 -4.619454 0.0
v 45.85602 -1.754681 0.0
v 48.417134 1.017061 0.0
v 52.182747 1.017061 0.0
v 52.182747 2.282435 0.0
v 48.417134 2.282435 0.0
v 48.417134 14.759822 0.0
v 52.900968 14.759822 0.0
v 52.900968 16.38624 0.0
v 29.003908 16.38624 0.0
v 29.003908 23.284544 0.0
v 27.620277 23.284544 0.0
v 63.678806 -33.386052 0.0
v 63.678806 -42.710945 0.0
v 62.383915 -42.710945 0.0
v 62.383915 -32.90958 0.0
v 57.419648 -32.90958 0.0
v 57.419648 -32.031183 0.0
v 61.774568 -32.031183 0.0
v 61.774568 -19.458548 0.0
v 58.624525 -19.458548 0.0
v 58.624525 -17.96312 0.0
v 61.968175 -17.96312 0.0
v 64.491142 -14.650025 0.0
v 64.491142 -11.751444 0.0
v 66.216578 -11.751444 0.0
v 66.216578 -14.650025 0.0
v 82.294736 -14.650025 0.0
v 82.294736 -10.02596 0.0
v 83.168983 -10.02596 0.0
v 83.168983 -29.51246 0.0
v 90.603266 -29.51246 0.0
v 90.603266 -30.833709 0.0
v 85.457133 -30.833709 0.0
v 85.457133 -42.710945 0.0
v 84.221088 -42.710945 0.0
v 84.221088 -33.386052 0.0
v 80.159689 -33.386052 0.0
v 80.159689 -42.710945 0.0
v 79.217968 -42.710945 0.0
v 79.217968 -33.386052 0.0
v 57.419648 14.759822 0.0
v 61.968175 14.759822 0.0
v 61.968175 2.282435 0.0
v 58.624525 2.282435 0.0
v 58.624525 1.017061 0.0
v 61.968175 1.017061 0.0
v 64.491142 -1.754681 0.0
v 64.491142 -4.619454 0.0
v 66.216578 -4.619454 0.0
v 66.216578 -1.754681 0.0
v 82.294736 -1.754681 0.0
v 82.294736 -7.03515 0.0
v 83.168983 -7.03515 0.0
v 83.168983 12.452057 0.0
v 90.603266 12.452057 0.0
v 90.603266 16.38624 0.0
v 85.451286 16.38624 0.0
v 83.659506 18.178019 0.0
v 83.659506 23.284544 0.0
v 82.383288 23.284544 0.0
v 82.383288 16.38624 0.0
v 57.419648 16.38624 0.0
v 84.221088 -48.844961 0.0
v 84.221088 -46.099907 0.0
v 85.457133 -46.099907 0.0
v 85.457133 -49.963314 0.0
v 82.485089 -49.963314 0.0
v 82.485089 -48.844961 0.0
v -65.594608 -45.949964 0.0
v -65.594608 -49.497546 0.0
v -62.982618 -49.497546 0.0
v -62.982618 -50.602603 0.0
v -66.498797 -50.602603 0.0
v -66.498797 -45.949964 0.0
v -60.169713 -43.212407 0.0
v -60.169713 -33.386052 0.0
v -44.748902 -33.386052 0.0
v -44.748902 -43.212407 0.0
v -43.191751 -43.212407 0.0
v -43.191751 -32.783259 0.0
v -38.341875 -32.783259 0.0
v -38.341875 -32.054618 0.0
v -44.254513 -32.054618 0.0
v -44.254513 -16.25329 0.0
v -38.341875 -16.25329 0.0
v -38.341875 -14.650025 0.0
v -40.626913 -14.650025 0.0
v -44.254513 -11.022378 0.0
v -44.254513 -10.02596 0.0
v -45.176242 -10.02596 0.0
v -45.176242 -14.650025 0.0
v -65.673918 -14.650025 0.0
v -65.673918 -10.02596 0.0
v -71.078963 -10.02596 0.0
v -71.078963 -29.606293 0.0
v -77.759189 -29.606293 0.0
v -77.759189 -30.91217 0.0
v -66.498797 -30.91217 0.0
v -66.498797 -43.212407 0.0
v -65.594608 -43.212407 0.0
v -65.594608 -41.862443 0.0
v -61.073854 -41.862443 0.0
v -61.073854 -43.212407 0.0
usemtl color_000
f 522 150 151
f 522 151 152
f 147 149 150
f 518 519 520
f 548 150 523
f 549 523 518
f 549 548 523
f 546 147 150
f 546 150 548
f 545 146 147
f 545 147 546
f 153 518 520
f 552 549 518
f 552 518 153
f 524 153 154
f 524 552 153
f 551 550 549
f 551 549 552
f 157 154 155
f 157 155 156
f 527 524 154
f 527 154 157
f 528 527 157
f 528 157 158
f 160 158 159
f 543 145 146
f 543 146 545
f 526 524 527
f 526 525 524
f 161 158 160
f 144 543 268
f 144 145 543
f 247 158 161
f 247 528 158
f 269 543 542
f 269 268 543
f 246 247 161
f 246 161 162
f 530 528 247
f 530 529 528
f 164 162 163
f 143 144 268
f 249 530 247
f 250 531 530
f 250 530 249
f 137 138 139
f 137 139 141
f 266 143 268
f 298 137 141
f 300 136 137
f 300 137 298
f 248 249 247
f 142 143 266
f 301 136 300
f 297 141 142
f 297 298 141
f 134 135 136
f 299 300 298
f 540 542 541
f 313 296 297
f 295 142 266
f 312 297 142
f 312 313 297
f 294 142 295
f 294 312 142
f 311 312 294
f 311 294 293
f 187 184 185
f 187 185 186
f 165 246 162
f 303 301 302
f 303 136 301
f 539 542 540
f 534 533 532
f 534 532 531
f 534 531 250
f 181 184 187
f 181 187 188
f 538 537 536
f 132 134 136
f 132 136 303
f 535 538 536
f 306 304 305
f 243 246 165
f 133 134 132
f 272 269 542
f 272 542 539
f 191 188 189
f 191 189 190
f 131 303 304
f 131 132 303
f 291 293 292
f 253 535 534
f 253 534 250
f 307 304 306
f 307 131 304
f 308 309 310
f 308 310 311
f 308 311 293
f 273 539 538
f 273 272 539
f 273 538 535
f 175 169 174
f 175 168 169
f 254 535 253
f 166 167 168
f 166 243 165
f 166 168 175
f 4 1 2
f 4 2 3
f 113 114 115
f 126 308 293
f 126 293 291
f 127 307 308
f 127 130 131
f 127 131 307
f 127 308 126
f 7 188 191
f 7 181 188
f 7 1 4
f 7 191 1
f 252 253 250
f 252 250 251
f 271 269 272
f 271 270 269
f 8 181 7
f 8 180 181
f 242 243 166
f 173 174 172
f 425 113 115
f 129 130 127
f 129 127 128
f 178 179 180
f 424 112 113
f 424 113 425
f 177 178 180
f 275 274 273
f 321 291 290
f 321 126 291
f 320 126 321
f 320 125 126
f 257 254 255
f 257 255 256
f 289 288 287
f 240 241 242
f 276 273 535
f 276 275 273
f 379 254 257
f 379 276 535
f 379 535 254
f 379 257 258
f 319 125 320
f 319 124 125
f 322 290 289
f 322 321 290
f 376 277 276
f 376 276 379
f 192 166 175
f 192 240 242
f 192 242 166
f 380 379 258
f 378 376 379
f 378 377 376
f 109 110 111
f 109 111 112
f 375 277 376
f 117 425 116
f 11 177 180
f 11 180 8
f 11 176 177
f 205 240 192
f 205 239 240
f 121 122 123
f 121 123 124
f 317 124 319
f 317 319 318
f 317 121 124
f 12 176 11
f 120 118 119
f 324 323 322
f 324 322 289
f 324 289 287
f 415 425 117
f 10 8 9
f 10 11 8
f 421 109 112
f 421 112 424
f 342 121 317
f 340 121 342
f 340 120 121
f 416 117 118
f 416 415 117
f 416 118 120
f 341 340 342
f 420 109 421
f 420 108 109
f 316 342 317
f 339 120 340
f 193 192 175
f 414 425 415
f 343 342 316
f 106 107 108
f 106 108 420
f 284 287 286
f 284 286 285
f 361 339 362
f 280 279 278
f 280 278 277
f 281 283 282
f 197 196 195
f 197 195 194
f 402 416 120
f 402 120 339
f 402 361 360
f 402 339 361
f 372 280 277
f 372 277 375
f 372 375 374
f 403 402 360
f 206 193 176
f 206 176 12
f 327 287 284
f 327 324 287
f 371 280 372
f 371 281 280
f 16 22 23
f 16 17 22
f 238 194 193
f 238 193 206
f 262 383 261
f 422 421 424
f 422 424 423
f 347 338 337
f 347 346 338
f 328 327 284
f 328 283 281
f 328 284 283
f 373 372 374
f 345 343 346
f 345 344 343
f 201 263 202
f 201 262 263
f 208 206 14
f 418 420 419
f 235 194 238
f 235 197 194
f 369 371 370
f 25 23 24
f 104 420 418
f 234 197 235
f 234 198 197
f 384 201 200
f 103 418 417
f 103 104 418
f 209 14 15
f 209 208 14
f 330 329 328
f 330 281 371
f 330 328 281
f 236 238 237
f 236 235 238
f 331 333 332
f 105 420 104
f 105 106 420
f 351 334 333
f 351 350 334
f 78 330 371
f 79 331 330
f 79 330 78
f 76 78 371
f 76 369 368
f 76 371 369
f 77 78 76
f 26 16 23
f 26 15 16
f 26 23 25
f 75 76 368
f 405 404 403
f 353 351 333
f 353 352 351
f 353 333 331
f 395 393 392
f 356 355 354
f 406 408 407
f 88 357 356
f 88 405 357
f 90 405 88
f 212 209 15
f 212 26 27
f 212 15 26
f 100 103 417
f 100 417 413
f 100 413 412
f 82 331 79
f 82 353 331
f 213 212 27
f 83 353 82
f 83 356 354
f 83 354 353
f 87 356 83
f 87 88 356
f 99 100 412
f 91 405 90
f 91 406 405
f 232 198 234
f 232 384 200
f 232 200 198
f 81 82 79
f 81 79 80
f 89 90 88
f 101 102 103
f 101 103 100
f 365 368 367
f 365 367 366
f 440 232 231
f 440 384 232
f 441 440 231
f 363 365 364
f 229 231 230
f 396 390 389
f 386 384 440
f 386 385 384
f 211 210 209
f 211 209 212
f 409 408 406
f 387 396 389
f 387 389 388
f 30 213 27
f 30 27 28
f 30 28 29
f 72 365 363
f 72 368 365
f 72 75 368
f 72 74 75
f 72 363 70
f 410 412 411
f 410 99 412
f 410 98 99
f 438 386 440
f 94 406 91
f 94 409 406
f 69 363 401
f 69 70 363
f 228 231 229
f 437 386 438
f 437 387 386
f 71 72 70
f 73 74 72
f 95 410 409
f 95 409 94
f 463 30 31
f 463 213 30
f 85 87 83
f 85 83 84
f 85 86 87
f 444 442 441
f 444 441 231
f 444 231 228
f 462 463 31
f 93 94 91
f 93 91 92
f 445 444 228
f 445 228 227
f 398 387 437
f 398 397 396
f 398 396 387
f 465 213 463
f 465 215 213
f 465 216 215
f 466 216 465
f 428 398 437
f 443 442 444
f 435 437 436
f 427 398 428
f 427 399 398
f 464 465 463
f 430 428 437
f 430 437 435
f 429 428 430
f 219 218 217
f 219 217 216
f 219 216 466
f 224 227 226
f 224 226 225
f 224 445 227
f 431 430 435
f 97 98 410
f 97 410 95
f 97 95 96
f 34 31 32
f 34 32 33
f 220 223 222
f 220 222 221
f 515 36 37
f 515 516 36
f 488 462 31
f 488 31 34
f 487 34 35
f 487 488 34
f 513 35 517
f 513 517 512
f 38 515 37
f 469 219 466
f 469 466 467
f 514 515 38
f 448 224 223
f 448 446 445
f 448 445 224
f 470 220 219
f 470 219 469
f 67 399 427
f 449 448 223
f 484 35 513
f 484 487 35
f 433 431 434
f 433 432 431
f 468 469 467
f 483 513 514
f 483 484 513
f 483 514 38
f 447 446 448
f 60 67 427
f 64 65 66
f 489 462 488
f 489 461 462
f 61 67 60
f 61 66 67
f 486 487 484
f 451 450 449
f 472 470 471
f 485 486 484
f 473 220 470
f 473 223 220
f 473 470 472
f 452 451 449
f 452 449 223
f 452 223 473
f 57 460 459
f 57 58 460
f 494 452 473
f 497 473 474
f 497 494 473
f 493 453 452
f 493 452 494
f 498 497 474
f 496 494 497
f 495 494 496
f 455 454 453
f 41 481 483
f 41 38 39
f 41 483 38
f 41 480 481
f 42 480 41
f 476 474 475
f 456 455 453
f 63 64 66
f 63 66 61
f 63 61 62
f 490 453 493
f 490 456 453
f 477 474 476
f 478 42 43
f 511 56 457
f 511 456 490
f 511 457 456
f 501 498 474
f 501 474 477
f 502 501 477
f 502 478 43
f 502 477 478
f 491 493 492
f 491 490 493
f 500 498 501
f 500 499 498
f 508 507 506
f 505 508 506
f 53 54 509
f 53 508 505
f 53 509 508
f 46 504 45
f 46 53 505
f 46 505 504
f 44 502 43
f 44 45 502
f 55 56 511
f 51 52 53
f 48 46 47
f 50 53 46
f 50 51 53
f 49 46 48
f 49 50 46
f 6 7 4
f 6 4 5
f 12 13 14
f 12 14 206
f 18 19 17
f 17 19 22
f 20 21 22
f 20 22 19
f 35 36 516
f 35 516 517
f 40 41 39
f 59 60 58
f 67 68 69
f 115 116 425
f 139 140 141
f 147 148 149
f 152 153 520
f 152 520 521
f 152 521 522
f 164 165 162
f 170 171 169
f 171 172 174
f 171 174 169
f 175 176 193
f 181 182 183
f 181 183 184
f 204 203 202
f 204 202 205
f 205 202 263
f 205 263 239
f 200 199 198
f 233 232 234
f 214 213 215
f 207 206 208
f 244 245 243
f 243 245 246
f 259 260 261
f 259 261 383
f 259 383 258
f 258 383 380
f 265 239 263
f 265 263 264
f 268 267 266
f 336 335 334
f 336 334 350
f 336 350 337
f 337 350 347
f 326 325 324
f 326 324 327
f 315 314 338
f 315 338 346
f 315 346 316
f 316 346 343
f 359 358 357
f 359 357 360
f 360 357 403
f 403 357 405
f 349 348 347
f 349 347 350
f 400 399 401
f 401 399 69
f 69 399 67
f 396 395 390
f 394 393 395
f 392 391 390
f 392 390 395
f 384 383 201
f 201 383 262
f 382 381 380
f 382 380 383
f 402 413 417
f 402 417 416
f 458 457 459
f 459 457 57
f 57 457 56
f 440 439 438
f 435 434 431
f 427 426 460
f 427 460 58
f 427 58 60
f 478 479 480
f 478 480 42
f 482 483 481
f 511 510 509
f 511 509 54
f 511 54 55
f 503 502 504
f 504 502 45
f 522 523 150
f 548 547 546
f 544 543 545