<?xml version="1.0" encoding="UTF-8" standalone="no"?><!DOCTYPE svg PUBLIC "-//W3C//DTD SVG 1.1//EN" "http://www.w3.org/Graphics/SVG/1.1/DTD/svg11.dtd"><svg width="100%" height="100%" viewBox="0 0 1512 1512" version="1.1" xmlns="http://www.w3.org/2000/svg" xmlns:xlink="http://www.w3.org/1999/xlink" xml:space="preserve" xmlns:serif="http://www.serif.com/" style="fill-rule:evenodd;clip-rule:evenodd;stroke-linecap:round;stroke-linejoin:round;stroke-miterlimit:1.5;"><rect x="0" y="0" width="1511.81" height="1511.81" style="fill:none;"/><path d="M755.906,724.409l354.33,-122.047l-354.33,-122.047l-354.331,122.047l354.331,122.047Z" style="fill:#04f1ef;fill-opacity:0.41;stroke:#000;stroke-width:8.33px;"/><path d="M1110.24,358.268l-354.33,122.047" style="fill:none;stroke:#000;stroke-width:8.33px;"/><path d="M401.575,358.268l354.331,122.047" style="fill:none;stroke:#000;stroke-width:8.33px;"/><path d="M755.906,724.409l-354.331,122.048" style="fill:none;stroke:#000;stroke-width:8.33px;"/><path d="M755.906,724.409l354.33,122.048" style="fill:none;stroke:#000;stroke-width:8.33px;"/><path d="M755.906,480.315l-0,488.189" style="fill:none;stroke:#000;stroke-width:8.33px;"/><path d="M755.906,236.22l-0,244.095" style="fill:none;stroke:#000;stroke-width:8.33px;"/><rect x="47.244" y="47.244" width="1417.32" height="1417.32" style="fill:none;stroke:#000;stroke-width:8.33px;"/><g><path d="M236.655,1281.66c-11.16,0 -19.515,-3.207 -25.065,-9.623c-5.55,-6.415 -8.325,-16.039 -8.325,-28.87l-0,-15.218l8.414,0l0,15.218c0,10.086 2.223,17.65 6.67,22.693c4.446,5.043 11.145,7.565 20.096,7.565c3.7,-0 7.162,-0.165 10.385,-0.493c3.222,-0.328 6.415,-0.791 9.578,-1.387l0.985,7.967c-3.82,0.716 -7.55,1.253 -11.19,1.611c-3.641,0.358 -7.49,0.537 -11.548,0.537Zm-33.39,-46.549l-0,-78.776l8.414,-0l0,78.776l-8.414,-0Zm-29.094,-42.074l0,-8.056l81.641,-0l-0,8.056l-81.641,0Z" style="fill-rule:nonzero;"/><path d="M326.889,1281.66c-12.413,0 -22.081,-4.297 -29.004,-12.89c-6.922,-8.594 -10.384,-20.709 -10.384,-36.345c0,-15.695 3.462,-27.825 10.384,-36.389c6.923,-8.564 16.591,-12.846 29.004,-12.846c12.473,0 22.156,4.282 29.049,12.846c6.893,8.564 10.339,20.694 10.339,36.389c0,15.636 -3.446,27.751 -10.339,36.345c-6.893,8.593 -16.576,12.89 -29.049,12.89Zm0,-8.235c9.788,-0 17.367,-3.581 22.738,-10.743c5.371,-7.161 8.057,-17.247 8.057,-30.257c-0,-13.069 -2.686,-23.17 -8.057,-30.302c-5.371,-7.131 -12.95,-10.697 -22.738,-10.697c-9.787,-0 -17.366,3.566 -22.737,10.697c-5.371,7.132 -8.057,17.233 -8.057,30.302c0,13.01 2.686,23.096 8.057,30.257c5.371,7.162 12.95,10.743 22.737,10.743Z" style="fill-rule:nonzero;"/><path d="M397.788,1321.04l-0,-136.067l6.624,-0l1.791,22.737l-0,113.33l-8.415,0Zm41.626,-39.388c-9.608,0 -17.024,-2.163 -22.245,-6.49c-5.222,-4.327 -8.609,-10.22 -10.161,-17.68l-7.251,0l6.446,-24.528c-0,13.309 2.655,23.38 7.967,30.213c5.311,6.833 13.129,10.25 23.453,10.25c10.206,-0 17.934,-3.402 23.186,-10.205c5.251,-6.804 7.877,-16.77 7.877,-29.9c0,-13.785 -2.611,-24.214 -7.833,-31.286c-5.221,-7.072 -12.905,-10.608 -23.051,-10.608c-10.384,-0 -18.246,3.416 -23.588,10.25c-5.341,6.833 -8.011,16.934 -8.011,30.302l-5.551,-25.692l6.267,-0c1.492,-7.639 4.938,-13.398 10.339,-17.277c5.401,-3.879 12.607,-5.819 21.619,-5.819c12.652,0 22.215,4.237 28.69,12.712c6.475,8.474 9.713,20.947 9.713,37.418c0,15.875 -3.193,27.9 -9.578,36.076c-6.386,8.176 -15.815,12.264 -28.288,12.264Z" style="fill-rule:nonzero;"/><path d="M541.733,1281.66c-12.413,0 -22.081,-4.297 -29.004,-12.89c-6.923,-8.594 -10.384,-20.709 -10.384,-36.345c0,-15.695 3.461,-27.825 10.384,-36.389c6.923,-8.564 16.591,-12.846 29.004,-12.846c12.473,0 22.156,4.282 29.049,12.846c6.893,8.564 10.339,20.694 10.339,36.389c0,15.636 -3.446,27.751 -10.339,36.345c-6.893,8.593 -16.576,12.89 -29.049,12.89Zm0,-8.235c9.787,-0 17.367,-3.581 22.738,-10.743c5.371,-7.161 8.056,-17.247 8.056,-30.257c0,-13.069 -2.685,-23.17 -8.056,-30.302c-5.371,-7.131 -12.951,-10.697 -22.738,-10.697c-9.787,-0 -17.366,3.566 -22.737,10.697c-5.372,7.132 -8.057,17.233 -8.057,30.302c-0,13.01 2.685,23.096 8.057,30.257c5.371,7.162 12.95,10.743 22.737,10.743Z" style="fill-rule:nonzero;"/><path d="M669.565,1281.66c-10.742,0 -18.784,-2.76 -24.125,-8.28c-5.341,-5.52 -8.012,-13.801 -8.012,-24.841l0,-102.946l8.415,-0l-0,102.946c-0,5.55 0.91,10.16 2.73,13.83c1.82,3.67 4.551,6.43 8.191,8.281c3.64,1.85 8.206,2.775 13.696,2.775c4.834,-0 10.832,-0.866 17.994,-2.596l0.984,7.967c-3.401,1.014 -6.669,1.745 -9.802,2.193c-3.133,0.447 -6.49,0.671 -10.071,0.671Zm-63.2,-128.011l0,-8.056l32.674,-0l0,8.056l-32.674,0Z" style="fill-rule:nonzero;"/><path d="M756.577,1281.66c-12.413,0 -22.081,-4.297 -29.004,-12.89c-6.923,-8.594 -10.384,-20.709 -10.384,-36.345c-0,-15.695 3.461,-27.825 10.384,-36.389c6.923,-8.564 16.591,-12.846 29.004,-12.846c12.473,0 22.156,4.282 29.049,12.846c6.892,8.564 10.339,20.694 10.339,36.389c-0,15.636 -3.447,27.751 -10.339,36.345c-6.893,8.593 -16.576,12.89 -29.049,12.89Zm-0,-8.235c9.787,-0 17.366,-3.581 22.738,-10.743c5.371,-7.161 8.056,-17.247 8.056,-30.257c0,-13.069 -2.685,-23.17 -8.056,-30.302c-5.372,-7.131 -12.951,-10.697 -22.738,-10.697c-9.787,-0 -17.367,3.566 -22.738,10.697c-5.371,7.132 -8.056,17.233 -8.056,30.302c-0,13.01 2.685,23.096 8.056,30.257c5.371,7.162 12.951,10.743 22.738,10.743Z" style="fill-rule:nonzero;"/><path d="M828.729,1322.66l-0.358,-7.878l27.75,-1.074c12.473,-0.478 21.589,-3.969 27.348,-10.474c5.759,-6.505 8.638,-16.143 8.638,-28.914l0,-67.497l0.896,-21.842l7.519,-0l0,86.474c0,16.889 -3.685,29.347 -11.055,37.374c-7.371,8.027 -19.083,12.339 -35.136,12.935l-25.602,0.896Zm30.167,-41c-12.413,0 -21.827,-4.088 -28.243,-12.264c-6.415,-8.176 -9.623,-20.201 -9.623,-36.076c0,-16.471 3.253,-28.944 9.758,-37.418c6.505,-8.475 16.053,-12.712 28.645,-12.712c9.012,0 16.218,1.94 21.619,5.819c5.401,3.879 8.847,9.638 10.339,17.277l6.267,-0l-5.551,25.692c0,-13.368 -2.67,-23.469 -8.011,-30.302c-5.342,-6.834 -13.204,-10.25 -23.588,-10.25c-10.146,-0 -17.829,3.536 -23.051,10.608c-5.222,7.072 -7.833,17.501 -7.833,31.286c-0,13.13 2.626,23.096 7.877,29.9c5.252,6.803 12.981,10.205 23.186,10.205c10.324,-0 18.142,-3.417 23.453,-10.25c5.312,-6.833 7.967,-16.904 7.967,-30.213l6.446,24.528l-7.251,0c-1.492,7.46 -4.864,13.353 -10.116,17.68c-5.251,4.327 -12.681,6.49 -22.29,6.49Z" style="fill-rule:nonzero;"/><path d="M973.48,1279.87l-0,-90.593l8.414,0l0,90.593l-8.414,-0Zm-39.299,-0l0,-8.057l41.178,0l0,8.057l-41.178,-0Zm45.833,-0l0,-8.057l34.196,0l0,8.057l-34.196,-0Zm-40.462,-86.833l0,-8.056l42.342,-0l0,8.056l-42.342,0Zm37.061,-31.6c-2.447,0 -4.551,-0.865 -6.311,-2.596c-1.761,-1.73 -2.641,-3.789 -2.641,-6.177c-0,-2.506 0.865,-4.64 2.596,-6.4c1.731,-1.761 3.849,-2.641 6.356,-2.641c2.447,0 4.55,0.88 6.311,2.641c1.76,1.76 2.641,3.894 2.641,6.4c-0,2.388 -0.881,4.447 -2.641,6.177c-1.761,1.731 -3.864,2.596 -6.311,2.596Z" style="fill-rule:nonzero;"/><path d="M1087.97,1281.66c-15.934,0 -28.004,-4.177 -36.21,-12.532c-8.206,-8.355 -12.308,-20.649 -12.308,-36.882c-0,-15.516 3.983,-27.571 11.95,-36.165c7.967,-8.594 19.321,-12.891 34.062,-12.891c8.713,0 16.188,1.716 22.424,5.148c6.237,3.431 10.668,8.28 13.294,14.546l-7.43,4.745c-3.223,-6.028 -7.356,-10.235 -12.399,-12.622c-5.043,-2.388 -10.578,-3.581 -16.605,-3.581c-11.578,-0 -20.589,3.461 -27.035,10.384c-6.445,6.923 -9.668,16.77 -9.668,29.541c0,13.846 3.402,24.319 10.205,31.421c6.804,7.102 16.83,10.653 30.078,10.653c4.894,-0 9.743,-0.269 14.547,-0.806c4.804,-0.537 9.504,-1.283 14.099,-2.238l1.075,8.146c-4.894,1.253 -9.892,2.089 -14.995,2.507c-5.102,0.417 -10.13,0.626 -15.084,0.626Z" style="fill-rule:nonzero;"/><path d="M1149.74,1321.04l-0,-136.067l6.624,-0l1.791,22.737l-0,113.33l-8.415,0Zm41.626,-39.388c-9.608,0 -17.023,-2.163 -22.245,-6.49c-5.222,-4.327 -8.609,-10.22 -10.161,-17.68l-7.251,0l6.446,-24.528c-0,13.309 2.655,23.38 7.967,30.213c5.311,6.833 13.129,10.25 23.454,10.25c10.205,-0 17.933,-3.402 23.185,-10.205c5.252,-6.804 7.877,-16.77 7.877,-29.9c0,-13.785 -2.611,-24.214 -7.832,-31.286c-5.222,-7.072 -12.906,-10.608 -23.051,-10.608c-10.385,-0 -18.247,3.416 -23.588,10.25c-5.342,6.833 -8.012,16.934 -8.012,30.302l-5.55,-25.692l6.266,-0c1.492,-7.639 4.938,-13.398 10.339,-17.277c5.401,-3.879 12.607,-5.819 21.619,-5.819c12.652,0 22.215,4.237 28.69,12.712c6.476,8.474 9.713,20.947 9.713,37.418c0,15.875 -3.193,27.9 -9.578,36.076c-6.386,8.176 -15.815,12.264 -28.288,12.264Z" style="fill-rule:nonzero;"/><path d="M1248.84,1322.84l-0.358,-8.147l5.997,-1.074c5.789,-1.074 11.041,-3.252 15.755,-6.535c4.715,-3.282 9.161,-8.146 13.339,-14.591c4.177,-6.445 8.325,-14.95 12.443,-25.513l32.137,-81.998l9.489,-0l-35.181,86.474c-4.655,11.399 -9.265,20.619 -13.831,27.661c-4.565,7.042 -9.414,12.324 -14.546,15.845c-5.133,3.521 -10.951,5.759 -17.456,6.714l-7.788,1.164Zm39.656,-42.969l-41.447,-94.889l9.489,-0l37.15,86.832l1.97,0l-0.448,8.057l-6.714,-0Z" style="fill-rule:nonzero;"/></g><path d="M755.906,236.22l354.33,122.048l0,488.189l-354.33,122.047l-354.331,-122.047l-0,-488.189l354.331,-122.048" style="fill:none;stroke:#000;stroke-width:33.33px;"/></svg>