<?xml version="1.0" encoding="UTF-8" standalone="no"?><!DOCTYPE svg PUBLIC "-//W3C//DTD SVG 1.1//EN" "http://www.w3.org/Graphics/SVG/1.1/DTD/svg11.dtd"><svg width="100%" height="100%" viewBox="0 0 407 355" version="1.1" xmlns="http://www.w3.org/2000/svg" xmlns:xlink="http://www.w3.org/1999/xlink" xml:space="preserve" xmlns:serif="http://www.serif.com/" style="fill-rule:evenodd;clip-rule:evenodd;stroke-linecap:round;stroke-linejoin:round;stroke-miterlimit:1.5;"><g><rect x="157.5" y="127.5" width="90" height="89.25" style="fill:none;stroke:#000;stroke-width:0.9px;"/><g><path d="M180,163.512l22.5,7.746l22.5,-7.746l-22.5,-7.746l-22.5,7.746Z" style="fill:#00c2c0;fill-opacity:0.6;stroke:#000;stroke-width:0.9px;"/><path d="M225,147.246l0,31.758" style="fill:none;stroke:#000;stroke-width:2.4px;"/><path d="M202.5,139.5l0,15.492" style="fill:none;stroke:#000;stroke-width:0.9px;"/><path d="M202.5,154.992l0,20.139" style="fill:none;stroke:#000;stroke-width:0.9px;"/><path d="M202.5,171.258l0,15.492" style="fill:none;stroke:#000;stroke-width:0.9px;"/><path d="M180,147.246l0,31.758" style="fill:none;stroke:#000;stroke-width:2.4px;"/><path d="M180,147.246l22.5,-7.746" style="fill:none;stroke:#000;stroke-width:2.4px;"/><path d="M202.5,139.5l22.5,7.746" style="fill:none;stroke:#000;stroke-width:2.4px;"/><path d="M180,147.246l22.5,7.746" style="fill:none;stroke:#000;stroke-width:0.9px;"/><path d="M202.5,171.258l22.5,7.746" style="fill:none;stroke:#000;stroke-width:0.9px;"/><path d="M202.5,154.992l22.5,-7.746" style="fill:none;stroke:#000;stroke-width:0.9px;"/><path d="M180,179.004l22.5,-7.746" style="fill:none;stroke:#000;stroke-width:0.9px;"/><path d="M180,179.004l22.5,7.746" style="fill:none;stroke:#000;stroke-width:2.4px;"/><path d="M202.5,186.75l22.5,-7.746" style="fill:none;stroke:#000;stroke-width:2.4px;"/></g><g transform="matrix(0.75,0,0,0.75,-21,3.375)"><text x="245.438px" y="269.719px" style="font-family:'CascadiaMono-Roman', 'Cascadia Mono', monospace;font-size:16px;">topologic</text><text x="329.813px" y="269.719px" style="font-family:'CascadiaCode-Roman', 'Cascadia Code', monospace;font-size:16px;">py</text><rect x="329.813" y="270.5" width="18.75" height="0.781"/></g><rect x="156" y="126" width="93" height="92.25" style="fill:none;"/></g></svg>