<?xml version="1.0" encoding="UTF-8" standalone="no"?><!DOCTYPE svg PUBLIC "-//W3C//DTD SVG 1.1//EN" "http://www.w3.org/Graphics/SVG/1.1/DTD/svg11.dtd"><svg width="100%" height="100%" viewBox="0 0 388 385" version="1.1" xmlns="http://www.w3.org/2000/svg" xmlns:xlink="http://www.w3.org/1999/xlink" xml:space="preserve" xmlns:serif="http://www.serif.com/" style="fill-rule:evenodd;clip-rule:evenodd;stroke-linecap:round;stroke-linejoin:round;stroke-miterlimit:1.5;"><g><rect x="6.25" y="6.25" width="375" height="371.875" style="fill:none;stroke:#000;stroke-width:3.75px;"/><g><path d="M100,156.301l93.75,32.275l93.75,-32.275l-93.75,-32.274l-93.75,32.274Z" style="fill:#00c2c0;fill-opacity:0.6;stroke:#000;stroke-width:3.75px;"/><path d="M287.5,88.525l0,132.325" style="fill:none;stroke:#000;stroke-width:10px;"/><path d="M193.75,56.25l0,64.549" style="fill:none;stroke:#000;stroke-width:3.75px;"/><path d="M193.75,120.799l0,83.914" style="fill:none;stroke:#000;stroke-width:3.75px;"/><path d="M193.75,188.576l0,64.549" style="fill:none;stroke:#000;stroke-width:3.75px;"/><path d="M100,88.525l0,132.325" style="fill:none;stroke:#000;stroke-width:10px;"/><path d="M100,88.525l93.75,-32.275" style="fill:none;stroke:#000;stroke-width:10px;"/><path d="M193.75,56.25l93.75,32.275" style="fill:none;stroke:#000;stroke-width:10px;"/><path d="M100,88.525l93.75,32.274" style="fill:none;stroke:#000;stroke-width:3.75px;"/><path d="M193.75,188.576l93.75,32.274" style="fill:none;stroke:#000;stroke-width:3.75px;"/><path d="M193.75,120.799l93.75,-32.274" style="fill:none;stroke:#000;stroke-width:3.75px;"/><path d="M100,220.85l93.75,-32.274" style="fill:none;stroke:#000;stroke-width:3.75px;"/><path d="M100,220.85l93.75,32.275" style="fill:none;stroke:#000;stroke-width:10px;"/><path d="M193.75,253.125l93.75,-32.275" style="fill:none;stroke:#000;stroke-width:10px;"/></g><g transform="matrix(3.125,0,0,3.125,-737.5,-510.938)"><text x="245.438px" y="269.719px" style="font-family:'CascadiaMono-Roman', 'Cascadia Mono', monospace;font-size:16px;">topologic</text><text x="329.813px" y="269.719px" style="font-family:'CascadiaCode-Roman', 'Cascadia Code', monospace;font-size:16px;">py</text></g><rect x="0" y="0" width="387.5" height="384.375" style="fill:none;"/></g></svg>