<?xml version="1.0" encoding="UTF-8" standalone="no"?>
<!DOCTYPE svg PUBLIC "-//W3C//DTD SVG 1.1//EN" "http://www.w3.org/Graphics/SVG/1.1/DTD/svg11.dtd">
<svg width="100%" height="100%" viewBox="0 0 124 123" version="1.1" xmlns="http://www.w3.org/2000/svg" xmlns:xlink="http://www.w3.org/1999/xlink" xml:space="preserve" xmlns:serif="http://www.serif.com/" style="fill-rule:evenodd;clip-rule:evenodd;stroke-linecap:round;stroke-linejoin:round;stroke-miterlimit:1.5;">
    <g transform="matrix(1,0,0,1,-208,-168)">
        <g>
            <rect x="210" y="170" width="120" height="119" style="fill:none;stroke:black;stroke-width:1.2px;"/>
            <g transform="matrix(1,0,0,1.03279,0,-10.2295)">
                <path d="M240,221L270,231L300,221L270,211L240,221Z" style="fill:rgb(0,194,192);fill-opacity:0.6;stroke:black;stroke-width:1.18px;"/>
                <g transform="matrix(1,0,0,0.891304,0,21.7391)">
                    <path d="M300,200L300,246" style="fill:none;stroke:black;stroke-width:3.33px;"/>
                </g>
                <path d="M270,190L270,210" style="fill:none;stroke:black;stroke-width:1.18px;"/>
                <path d="M270,210L270,236" style="fill:none;stroke:black;stroke-width:1.18px;"/>
                <g transform="matrix(1,0,0,1,0,-5)">
                    <path d="M270,236L270,256" style="fill:none;stroke:black;stroke-width:1.18px;"/>
                </g>
                <g transform="matrix(1,0,0,0.891304,0,21.7391)">
                    <path d="M240,200L240,246" style="fill:none;stroke:black;stroke-width:3.33px;"/>
                </g>
                <path d="M240,200L270,190" style="fill:none;stroke:black;stroke-width:3.15px;"/>
                <path d="M270,190L300,200" style="fill:none;stroke:black;stroke-width:3.15px;"/>
                <g transform="matrix(1,0,0,1,2,8)">
                    <path d="M238,192L268,202" style="fill:none;stroke:black;stroke-width:1.18px;"/>
                </g>
                <g transform="matrix(1,0,0,1,32,39)">
                    <path d="M238,192L268,202" style="fill:none;stroke:black;stroke-width:1.18px;"/>
                </g>
                <path d="M270,210L300,200" style="fill:none;stroke:black;stroke-width:1.18px;"/>
                <g transform="matrix(1,0,0,1,-30,31)">
                    <path d="M270,210L300,200" style="fill:none;stroke:black;stroke-width:1.18px;"/>
                </g>
                <path d="M240,241L270,251" style="fill:none;stroke:black;stroke-width:3.15px;"/>
                <path d="M270,251L300,241" style="fill:none;stroke:black;stroke-width:3.15px;"/>
            </g>
            <g transform="matrix(1,0,0,1,-28,4.5)">
                <text x="245.438px" y="269.719px" style="font-family:'CascadiaMono-Roman', 'Cascadia Mono', monospace;font-size:16px;">topologic</text>
                <text x="329.813px" y="269.719px" style="font-family:'CascadiaCode-Roman', 'Cascadia Code', monospace;font-size:16px;">py</text>
                <rect x="329.813" y="270.5" width="18.75" height="0.781"/>
            </g>
            <rect x="208" y="168" width="124" height="123" style="fill:none;"/>
        </g>
    </g>
</svg>
